<svg xmlns="http://www.w3.org/2000/svg" viewBox="0 0 2329.8 1914"><g transform="translate(30,30)"><path d="M788.4 405V180H144V405H416.7V801H515.7V405Z" fill="#1B1B1B"/><path d="M1064.7 485.1 905.4 180H806.4l211.5 406.8L921.6 801h261l280.8-621h-261Z" fill="#1B1B1B"/><path d="M2125.8 405V180h-644.4V405h272.7V801h99V405Z" fill="#1B1B1B"/><path d="M18 1107V1728h409.5c36 0 71.1-2.7 106.2-8.1 35.1-5.4 66.6-11.7 95.4-19.8 28.8-8.1 54-18 76.5-28.8 22.5-10.8 39.6-21.6 51.3-33.3v-156.6c-26.1-18.9-55.8-33.3-88.2-44.1-32.4-10.8-63-19.8-91.8-26.1 25.2-6.3 50.4-15.3 75.6-27 25.2-11.7 50.4-27 75.6-45v-157.5c-11.7-10.8-27.9-20.7-49.5-29.7-21.6-9-46.8-16.2-75.6-22.5-28.8-6.3-61.2-11.7-96.3-15.3-35.1-3.6-72-5.4-109.8-5.4ZM113.4 1302.3h283.5c48.6 0 89.1 3.6 121.5 10.8 32.4 7.2 57.6 17.1 76.5 28.8-19.8 11.7-45.9 20.7-78.3 27-32.4 6.3-72.9 9.9-121.5 9.9H112.5Zm-.9 157.5h309.6c48.6 0 89.1 3.6 120.6 10.8 31.5 7.2 57.6 16.2 77.4 27-18.9 11.7-44.1 21.6-76.5 28.8-32.4 7.2-72.9 10.8-121.5 10.8H111.6Z" fill="#1B1B1B"/><path d="M1535.4 1663.2v-227.7c-12.6 8.1-28.8 17.1-48.6 27-19.8 9.9-43.2 18.9-71.1 27.9-27.9 9-59.4 16.2-94.5 21.6-35.1 5.4-74.7 8.1-118.8 8.1-53.1 0-99.9-3.6-140.4-11.7-40.5-8.1-75.6-18-105.3-29.7-29.7-11.7-53.1-23.4-71.1-35.1-18-11.7-31.5-20.7-39.6-27.9 8.1-7.2 21.6-16.2 39.6-27.9 18-11.7 41.4-22.5 71.1-33.3 29.7-10.8 64.8-19.8 105.3-27.9 40.5-8.1 87.3-11.7 140.4-11.7 44.1 0 83.7 2.7 118.8 8.1 35.1 5.4 66.6 12.6 94.5 20.7 27.9 8.1 51.3 17.1 71.1 27 19.8 9.9 36 18.9 48.6 27v-245.7c-38.7-15.3-85.5-27.9-141.3-37.8-55.8-9.9-119.7-15.3-192.6-15.3-52.2 0-100.8 2.7-145.8 8.1-45 5.4-85.5 13.5-121.5 23.4-36 9.9-66.6 21.6-92.7 34.2-26.1 12.6-45.9 26.1-60.3 39.6v398.7c15.3 14.4 35.1 29.7 60.3 45.9 25.2 16.2 55.8 30.6 91.8 44.1 36 13.5 75.6 24.3 119.7 33.3 44.1 9 92.7 13.5 145.8 13.5 73.8 0 138.6-7.2 193.5-21.6 54.9-14.4 101.7-31.5 139.5-52.2Z" fill="#1B1B1B"/><path d="M1571.4 1107V1728h680.4v-216h-581.4v-56.7h311.4v-81h-311.4V1323h581.4v-216Z" fill="#1B1B1B"/></g></svg>